<svg width="58" height="72" viewBox="0 0 58 72" fill="none" xmlns="http://www.w3.org/2000/svg">
<path d="M12.7617 0C14.4375 0 16.0381 0.558594 17.5635 1.67578C19.1104 2.79297 20.4746 4.25391 21.6562 6.05859C22.8594 7.8418 23.8047 9.78613 24.4922 11.8916C25.1797 13.9756 25.5234 15.9951 25.5234 17.9502C25.5234 19.1963 25.373 20.7754 25.0723 22.6875C24.793 24.5781 24.3418 26.5977 23.7188 28.7461C23.1172 30.873 22.333 32.9248 21.3662 34.9014H4.15723C3.19043 32.9248 2.39551 30.873 1.77246 28.7461C1.1709 26.5977 0.719727 24.5781 0.418945 22.6875C0.139648 20.7754 0 19.1963 0 17.9502C0 15.9951 0.34375 13.9756 1.03125 11.8916C1.74023 9.78613 2.68555 7.8418 3.86719 6.05859C5.07031 4.25391 6.43457 2.79297 7.95996 1.67578C9.48535 0.558594 11.0859 0 12.7617 0ZM12.7939 53.1738C10.3662 53.1738 8.50781 52.0996 7.21875 49.9512C5.95117 47.7812 5.31738 44.999 5.31738 41.6045C5.31738 41.3037 5.32812 40.9385 5.34961 40.5088C5.39258 40.0576 5.44629 39.6279 5.51074 39.2197H20.0771C20.1201 39.6279 20.1523 40.0576 20.1738 40.5088C20.2168 40.9385 20.2383 41.3037 20.2383 41.6045C20.2383 44.999 19.5938 47.7812 18.3047 49.9512C17.0371 52.0996 15.2002 53.1738 12.7939 53.1738ZM50.0479 20.1738C51.6377 20.7754 52.959 21.8604 54.0117 23.4287C55.0859 24.9756 55.8701 26.8018 56.3643 28.9072C56.8584 30.9912 57.0732 33.1396 57.0088 35.3525C56.9443 37.5439 56.5791 39.5742 55.9131 41.4434C55.4834 42.625 54.8066 44.0645 53.8828 45.7617C52.959 47.4375 51.8418 49.1777 50.5312 50.9824C49.2207 52.7656 47.7705 54.4092 46.1807 55.9131L30.0352 50.0479C29.7988 47.8564 29.7559 45.6543 29.9062 43.4414C30.0781 41.2285 30.3467 39.1768 30.7119 37.2861C31.0986 35.3955 31.5068 33.8594 31.9365 32.6777C32.6025 30.8301 33.623 29.0469 34.998 27.3281C36.373 25.5879 37.9199 24.084 39.6387 22.8164C41.3789 21.5488 43.1514 20.6572 44.9561 20.1416C46.7822 19.6045 48.4795 19.6152 50.0479 20.1738ZM31.8721 70.1895C29.5947 69.3516 28.2305 67.6973 27.7793 65.2266C27.3281 62.7559 27.6826 59.9307 28.8428 56.751C28.9502 56.4287 29.0898 56.0742 29.2617 55.6875C29.4336 55.3008 29.6162 54.9141 29.8096 54.5273L43.5059 59.5225C43.4199 59.9307 43.3125 60.3496 43.1836 60.7793C43.0762 61.209 42.9688 61.5742 42.8613 61.875C41.7012 65.0332 40.1436 67.4072 38.1885 68.9971C36.2549 70.6084 34.1494 71.0059 31.8721 70.1895Z" fill="#AB6767" fill-opacity="0.7"/>
</svg>
