<svg width="25" height="25" viewBox="0 0 25 25" fill="none" xmlns="http://www.w3.org/2000/svg">
<path d="M9.41089 3.22046C10.2079 0.260425 14.4069 0.260408 15.2039 3.22046L16.3679 7.54175C16.4606 7.88559 16.7292 8.15411 17.073 8.24683L21.3943 9.41089C24.3543 10.2079 24.3543 14.4069 21.3943 15.2039L17.073 16.3679C16.7292 16.4606 16.4606 16.7292 16.3679 17.073L15.2039 21.3943C14.4069 24.3543 10.2079 24.3543 9.41089 21.3943L8.24683 17.073C8.1541 16.7292 7.88558 16.4606 7.54175 16.3679L3.22046 15.2039C0.260425 14.4069 0.260408 10.2079 3.22046 9.41089L7.54175 8.24683C7.88559 8.1541 8.15411 7.88558 8.24683 7.54175L9.41089 3.22046Z" fill="#DD89AB" stroke="#560000" stroke-width="2"/>
</svg>
