<svg width="13" height="17" viewBox="0 0 13 17" fill="none" xmlns="http://www.w3.org/2000/svg">
<path d="M2.90039 0C3.28125 0 3.64502 0.126953 3.9917 0.380859C4.34326 0.634766 4.65332 0.966797 4.92188 1.37695C5.19531 1.78223 5.41016 2.22412 5.56641 2.70264C5.72266 3.17627 5.80078 3.63525 5.80078 4.07959C5.80078 4.36279 5.7666 4.72168 5.69824 5.15625C5.63477 5.58594 5.53223 6.04492 5.39062 6.5332C5.25391 7.0166 5.07568 7.48291 4.85596 7.93213H0.944824C0.725098 7.48291 0.544434 7.0166 0.402832 6.5332C0.266113 6.04492 0.163574 5.58594 0.0952148 5.15625C0.0317383 4.72168 0 4.36279 0 4.07959C0 3.63525 0.078125 3.17627 0.234375 2.70264C0.395508 2.22412 0.610352 1.78223 0.878906 1.37695C1.15234 0.966797 1.4624 0.634766 1.80908 0.380859C2.15576 0.126953 2.51953 0 2.90039 0ZM2.90771 12.085C2.35596 12.085 1.93359 11.8408 1.64062 11.3525C1.35254 10.8594 1.2085 10.2271 1.2085 9.45557C1.2085 9.38721 1.21094 9.3042 1.21582 9.20654C1.22559 9.104 1.23779 9.00635 1.25244 8.91357H4.56299C4.57275 9.00635 4.58008 9.104 4.58496 9.20654C4.59473 9.3042 4.59961 9.38721 4.59961 9.45557C4.59961 10.2271 4.45312 10.8594 4.16016 11.3525C3.87207 11.8408 3.45459 12.085 2.90771 12.085ZM11.3745 4.58496C11.7358 4.72168 12.0361 4.96826 12.2754 5.32471C12.5195 5.67627 12.6978 6.09131 12.8101 6.56982C12.9224 7.04346 12.9712 7.53174 12.9565 8.03467C12.9419 8.53271 12.8589 8.99414 12.7075 9.41895C12.6099 9.6875 12.4561 10.0146 12.2461 10.4004C12.0361 10.7812 11.7822 11.1768 11.4844 11.5869C11.1865 11.9922 10.8569 12.3657 10.4956 12.7075L6.82617 11.3745C6.77246 10.8765 6.7627 10.376 6.79688 9.87305C6.83594 9.37012 6.89697 8.90381 6.97998 8.47412C7.06787 8.04443 7.16064 7.69531 7.2583 7.42676C7.40967 7.00684 7.6416 6.60156 7.9541 6.21094C8.2666 5.81543 8.61816 5.47363 9.00879 5.18555C9.4043 4.89746 9.80713 4.69482 10.2173 4.57764C10.6323 4.45557 11.0181 4.45801 11.3745 4.58496ZM7.24365 15.9521C6.72607 15.7617 6.41602 15.3857 6.31348 14.8242C6.21094 14.2627 6.2915 13.6206 6.55518 12.8979C6.57959 12.8247 6.61133 12.7441 6.65039 12.6562C6.68945 12.5684 6.73096 12.4805 6.7749 12.3926L9.8877 13.5278C9.86816 13.6206 9.84375 13.7158 9.81445 13.8135C9.79004 13.9111 9.76562 13.9941 9.74121 14.0625C9.47754 14.7803 9.12354 15.3198 8.6792 15.6812C8.23975 16.0474 7.76123 16.1377 7.24365 15.9521Z" fill="#560000"/>
</svg>
